<?xml version="1.0" encoding="UTF-8"?>
<!DOCTYPE svg PUBLIC "-//W3C//DTD SVG 1.1//EN" "http://www.w3.org/Graphics/SVG/1.1/DTD/svg11.dtd">
<!-- Creator: CorelDRAW 2019 -->
<svg xmlns="http://www.w3.org/2000/svg" xml:space="preserve" width="671.536mm" height="718.624mm" version="1.1" style="shape-rendering:geometricPrecision; text-rendering:geometricPrecision; image-rendering:optimizeQuality; fill-rule:evenodd; clip-rule:evenodd"
viewBox="0 0 2090.1 2236.66"
 xmlns:xlink="http://www.w3.org/1999/xlink">
 <defs>
  <style type="text/css">
   <![CDATA[
    .str0 {stroke:#2B2A29;stroke-width:0.62;stroke-miterlimit:22.9256}
    .fil0 {fill:none}
    .fil1 {fill:#EBECEC}
    .fil2 {fill:#D9DADA}
   ]]>
  </style>
 </defs>
 <g id="Layer_x0020_1">
  <metadata id="CorelCorpID_0Corel-Layer"/>
  <rect class="fil0 str0" x="0.31" y="0.31" width="2089.48" height="2236.04"/>
  <rect class="fil0 str0" x="0.31" y="0.31" width="2089.48" height="65.33"/>
  <rect class="fil1 str0" x="0.31" y="0.31" width="328.86" height="65.33"/>
  <rect class="fil0 str0" x="1622.6" y="22" width="133.96" height="21.96"/>
  <rect class="fil0 str0" x="1772.12" y="22" width="133.96" height="21.96"/>
  <rect class="fil0 str0" x="1921.64" y="22" width="133.96" height="21.96"/>
  <rect class="fil2 str0" x="71.14" y="129.32" width="399.67" height="527.04"/>
  <g id="_498274008">
   <rect class="fil0 str0" x="71.14" y="706.86" width="399.67" height="329.4"/>
   <rect class="fil0 str0" x="95.31" y="726.63" width="351.34" height="173.48"/>
   <g>
    <rect class="fil0 str0" x="95.31" y="936.9" width="232.77" height="38.43"/>
    <rect class="fil0 str0" x="95.31" y="975.33" width="164.7" height="17.57"/>
   </g>
   <rect class="fil0 str0" x="378.57" y="930.86" width="68.08" height="68.08"/>
  </g>
  <g id="_498303768">
   <rect class="fil0 str0" x="71.14" y="1066.82" width="399.67" height="329.4"/>
   <rect class="fil0 str0" x="95.31" y="1086.58" width="351.34" height="173.48"/>
   <g>
    <rect class="fil0 str0" x="95.31" y="1296.85" width="232.77" height="38.43"/>
    <rect class="fil0 str0" x="95.31" y="1335.28" width="164.7" height="17.57"/>
   </g>
   <rect class="fil0 str0" x="378.57" y="1290.81" width="68.08" height="68.08"/>
  </g>
  <g id="_658759616">
   <rect class="fil0 str0" x="213.88" y="1469.97" width="30.74" height="30.74"/>
   <rect class="fil0 str0" x="255.6" y="1469.97" width="30.74" height="30.74"/>
   <rect class="fil0 str0" x="297.33" y="1469.97" width="30.74" height="30.74"/>
  </g>
  <rect class="fil0 str0" x="156.23" y="1529.26" width="229.48" height="10.43"/>
  <rect class="fil0 str0" x="532.41" y="129.32" width="1500.41" height="2062.56"/>
  <rect class="fil0 str0" x="586.76" y="223.2" width="143.29" height="24.7"/>
  <rect class="fil0 str0" x="586.76" y="270.96" width="1386.77" height="47.76"/>
  <rect class="fil0 str0" x="586.76" y="376.37" width="228.93" height="23.06"/>
  <g id="_658763864">
   <g>
    <g>
     <rect class="fil0 str0" x="568.35" y="464.01" width="350.81" height="282.46"/>
     <rect class="fil1 str0" x="585.24" y="478.83" width="317.05" height="159.76"/>
     <g>
      <rect class="fil0 str0" x="585.24" y="658.35" width="317.05" height="46.12"/>
      <rect class="fil0 str0" x="585.23" y="704.47" width="317.05" height="27.18"/>
     </g>
    </g>
    <g>
     <rect class="fil0 str0" x="927.59" y="464.01" width="350.81" height="282.46"/>
     <rect class="fil1 str0" x="944.47" y="478.83" width="317.05" height="159.76"/>
     <g>
      <rect class="fil0 str0" x="944.47" y="658.35" width="317.05" height="46.12"/>
      <rect class="fil0 str0" x="944.47" y="704.47" width="317.05" height="27.18"/>
     </g>
    </g>
    <g>
     <rect class="fil0 str0" x="1286.82" y="464.01" width="350.81" height="282.46"/>
     <rect class="fil1 str0" x="1303.7" y="478.83" width="317.05" height="159.76"/>
     <g>
      <rect class="fil0 str0" x="1303.7" y="658.35" width="317.05" height="46.12"/>
      <rect class="fil0 str0" x="1303.7" y="704.47" width="317.05" height="27.18"/>
     </g>
    </g>
    <g>
     <rect class="fil0 str0" x="1646.06" y="464.01" width="350.81" height="282.46"/>
     <rect class="fil1 str0" x="1662.94" y="478.83" width="317.05" height="159.76"/>
     <g>
      <rect class="fil0 str0" x="1662.94" y="658.35" width="317.05" height="46.12"/>
      <rect class="fil0 str0" x="1662.94" y="704.47" width="317.05" height="27.18"/>
     </g>
    </g>
   </g>
   <g>
    <g>
     <rect class="fil0 str0" x="568.35" y="746.09" width="350.81" height="282.46"/>
     <rect class="fil1 str0" x="585.24" y="760.91" width="317.05" height="159.76"/>
     <g>
      <rect class="fil0 str0" x="585.24" y="940.43" width="317.05" height="46.12"/>
      <rect class="fil0 str0" x="585.23" y="986.55" width="317.05" height="27.18"/>
     </g>
    </g>
    <g>
     <rect class="fil0 str0" x="927.59" y="746.09" width="350.81" height="282.46"/>
     <rect class="fil1 str0" x="944.47" y="760.91" width="317.05" height="159.76"/>
     <g>
      <rect class="fil0 str0" x="944.47" y="940.43" width="317.05" height="46.12"/>
      <rect class="fil0 str0" x="944.47" y="986.55" width="317.05" height="27.18"/>
     </g>
    </g>
    <g>
     <rect class="fil0 str0" x="1286.82" y="746.09" width="350.81" height="282.46"/>
     <rect class="fil1 str0" x="1303.7" y="760.91" width="317.05" height="159.76"/>
     <g>
      <rect class="fil0 str0" x="1303.7" y="940.43" width="317.05" height="46.12"/>
      <rect class="fil0 str0" x="1303.7" y="986.55" width="317.05" height="27.18"/>
     </g>
    </g>
    <g>
     <rect class="fil0 str0" x="1646.06" y="746.09" width="350.81" height="282.46"/>
     <rect class="fil1 str0" x="1662.94" y="760.91" width="317.05" height="159.76"/>
     <g>
      <rect class="fil0 str0" x="1662.94" y="940.43" width="317.05" height="46.12"/>
      <rect class="fil0 str0" x="1662.94" y="986.55" width="317.05" height="27.18"/>
     </g>
    </g>
   </g>
   <g>
    <g>
     <rect class="fil0 str0" x="568.35" y="1028.17" width="350.81" height="282.46"/>
     <rect class="fil1 str0" x="585.24" y="1042.99" width="317.05" height="159.76"/>
     <g>
      <rect class="fil0 str0" x="585.24" y="1222.51" width="317.05" height="46.12"/>
      <rect class="fil0 str0" x="585.23" y="1268.63" width="317.05" height="27.18"/>
     </g>
    </g>
    <g>
     <rect class="fil0 str0" x="927.59" y="1028.17" width="350.81" height="282.46"/>
     <rect class="fil1 str0" x="944.47" y="1042.99" width="317.05" height="159.76"/>
     <g>
      <rect class="fil0 str0" x="944.47" y="1222.51" width="317.05" height="46.12"/>
      <rect class="fil0 str0" x="944.47" y="1268.63" width="317.05" height="27.18"/>
     </g>
    </g>
    <g>
     <rect class="fil0 str0" x="1286.82" y="1028.17" width="350.81" height="282.46"/>
     <rect class="fil1 str0" x="1303.7" y="1042.99" width="317.05" height="159.76"/>
     <g>
      <rect class="fil0 str0" x="1303.7" y="1222.51" width="317.05" height="46.12"/>
      <rect class="fil0 str0" x="1303.7" y="1268.63" width="317.05" height="27.18"/>
     </g>
    </g>
    <g>
     <rect class="fil0 str0" x="1646.06" y="1028.17" width="350.81" height="282.46"/>
     <rect class="fil1 str0" x="1662.94" y="1042.99" width="317.05" height="159.76"/>
     <g>
      <rect class="fil0 str0" x="1662.94" y="1222.51" width="317.05" height="46.12"/>
      <rect class="fil0 str0" x="1662.94" y="1268.63" width="317.05" height="27.18"/>
     </g>
    </g>
   </g>
   <g>
    <g>
     <rect class="fil0 str0" x="568.35" y="1310.25" width="350.81" height="282.46"/>
     <rect class="fil1 str0" x="585.24" y="1325.07" width="317.05" height="159.76"/>
     <g>
      <rect class="fil0 str0" x="585.24" y="1504.59" width="317.05" height="46.12"/>
      <rect class="fil0 str0" x="585.23" y="1550.71" width="317.05" height="27.18"/>
     </g>
    </g>
    <g>
     <rect class="fil0 str0" x="927.59" y="1310.25" width="350.81" height="282.46"/>
     <rect class="fil1 str0" x="944.47" y="1325.07" width="317.05" height="159.76"/>
     <g>
      <rect class="fil0 str0" x="944.47" y="1504.59" width="317.05" height="46.12"/>
      <rect class="fil0 str0" x="944.47" y="1550.71" width="317.05" height="27.18"/>
     </g>
    </g>
    <g>
     <rect class="fil0 str0" x="1286.82" y="1310.25" width="350.81" height="282.46"/>
     <rect class="fil1 str0" x="1303.7" y="1325.07" width="317.05" height="159.76"/>
     <g>
      <rect class="fil0 str0" x="1303.7" y="1504.59" width="317.05" height="46.12"/>
      <rect class="fil0 str0" x="1303.7" y="1550.71" width="317.05" height="27.18"/>
     </g>
    </g>
    <g>
     <rect class="fil0 str0" x="1646.06" y="1310.25" width="350.81" height="282.46"/>
     <rect class="fil1 str0" x="1662.94" y="1325.07" width="317.05" height="159.76"/>
     <g>
      <rect class="fil0 str0" x="1662.94" y="1504.59" width="317.05" height="46.12"/>
      <rect class="fil0 str0" x="1662.94" y="1550.71" width="317.05" height="27.18"/>
     </g>
    </g>
   </g>
   <g>
    <g>
     <rect class="fil0 str0" x="568.35" y="1592.33" width="350.81" height="282.46"/>
     <rect class="fil1 str0" x="585.24" y="1607.15" width="317.05" height="159.76"/>
     <g>
      <rect class="fil0 str0" x="585.24" y="1786.67" width="317.05" height="46.12"/>
      <rect class="fil0 str0" x="585.23" y="1832.79" width="317.05" height="27.18"/>
     </g>
    </g>
    <g>
     <rect class="fil0 str0" x="927.59" y="1592.33" width="350.81" height="282.46"/>
     <rect class="fil1 str0" x="944.47" y="1607.15" width="317.05" height="159.76"/>
     <g>
      <rect class="fil0 str0" x="944.47" y="1786.67" width="317.05" height="46.12"/>
      <rect class="fil0 str0" x="944.47" y="1832.79" width="317.05" height="27.18"/>
     </g>
    </g>
    <g>
     <rect class="fil0 str0" x="1286.82" y="1592.33" width="350.81" height="282.46"/>
     <rect class="fil1 str0" x="1303.7" y="1607.15" width="317.05" height="159.76"/>
     <g>
      <rect class="fil0 str0" x="1303.7" y="1786.67" width="317.05" height="46.12"/>
      <rect class="fil0 str0" x="1303.7" y="1832.79" width="317.05" height="27.18"/>
     </g>
    </g>
    <g>
     <rect class="fil0 str0" x="1646.06" y="1592.33" width="350.81" height="282.46"/>
     <rect class="fil1 str0" x="1662.94" y="1607.15" width="317.05" height="159.76"/>
     <g>
      <rect class="fil0 str0" x="1662.94" y="1786.67" width="317.05" height="46.12"/>
      <rect class="fil0 str0" x="1662.94" y="1832.79" width="317.05" height="27.18"/>
     </g>
    </g>
   </g>
   <g>
    <g>
     <rect class="fil0 str0" x="568.35" y="1874.41" width="350.81" height="282.46"/>
     <rect class="fil1 str0" x="585.24" y="1889.23" width="317.05" height="159.76"/>
     <g>
      <rect class="fil0 str0" x="585.24" y="2068.75" width="317.05" height="46.12"/>
      <rect class="fil0 str0" x="585.23" y="2114.87" width="317.05" height="27.18"/>
     </g>
    </g>
    <g>
     <rect class="fil0 str0" x="927.59" y="1874.41" width="350.81" height="282.46"/>
     <rect class="fil1 str0" x="944.47" y="1889.23" width="317.05" height="159.76"/>
     <g>
      <rect class="fil0 str0" x="944.47" y="2068.75" width="317.05" height="46.12"/>
      <rect class="fil0 str0" x="944.47" y="2114.87" width="317.05" height="27.18"/>
     </g>
    </g>
    <g>
     <rect class="fil0 str0" x="1286.82" y="1874.41" width="350.81" height="282.46"/>
     <rect class="fil1 str0" x="1303.7" y="1889.23" width="317.05" height="159.76"/>
     <g>
      <rect class="fil0 str0" x="1303.7" y="2068.75" width="317.05" height="46.12"/>
      <rect class="fil0 str0" x="1303.7" y="2114.87" width="317.05" height="27.18"/>
     </g>
    </g>
    <g>
     <rect class="fil0 str0" x="1646.06" y="1874.41" width="350.81" height="282.46"/>
     <rect class="fil1 str0" x="1662.94" y="1889.23" width="317.05" height="159.76"/>
     <g>
      <rect class="fil0 str0" x="1662.94" y="2068.75" width="317.05" height="46.12"/>
      <rect class="fil0 str0" x="1662.94" y="2114.87" width="317.05" height="27.18"/>
     </g>
    </g>
   </g>
  </g>
 </g>
</svg>
