<?xml version="1.0" encoding="UTF-8"?>
<!DOCTYPE svg PUBLIC "-//W3C//DTD SVG 1.1//EN" "http://www.w3.org/Graphics/SVG/1.1/DTD/svg11.dtd">
<!-- Creator: CorelDRAW 2019 -->
<svg xmlns="http://www.w3.org/2000/svg" xml:space="preserve" width="671.536mm" height="1572.88mm" version="1.1" style="shape-rendering:geometricPrecision; text-rendering:geometricPrecision; image-rendering:optimizeQuality; fill-rule:evenodd; clip-rule:evenodd"
viewBox="0 0 19105.57 44749.39"
 xmlns:xlink="http://www.w3.org/1999/xlink">
 <defs>
  <style type="text/css">
   <![CDATA[
    .str0 {stroke:#2B2A29;stroke-width:5.69;stroke-miterlimit:22.9256}
    .fil0 {fill:none}
   ]]>
  </style>
 </defs>
 <g id="Layer_x0020_1">
  <metadata id="CorelCorpID_0Corel-Layer"/>
  <rect class="fil0 str0" x="2.85" y="2.85" width="19099.88" height="39622.63"/>
  <rect class="fil0 str0" x="3667.81" y="2.84" width="11779.1" height="2500.25"/>
  <rect class="fil0 str0" x="8280.69" y="154.5" width="1794.57" height="1710.26"/>
  <rect class="fil0 str0" x="3667.81" y="2503.1" width="11779.1" height="806.94"/>
  <rect class="fil0 str0" x="3667.81" y="3310.04" width="11779.1" height="806.94"/>
  <rect class="fil0 str0" x="3812.35" y="2786.13" width="843.08" height="240.88"/>
  <rect class="fil0 str0" x="4773.6" y="2786.13" width="843.08" height="240.88"/>
  <rect class="fil0 str0" x="5783.03" y="2786.13" width="843.08" height="240.88"/>
  <rect class="fil0 str0" x="6792.45" y="2786.13" width="843.08" height="240.88"/>
  <rect class="fil0 str0" x="7801.88" y="2786.13" width="843.08" height="240.88"/>
  <rect class="fil0 str0" x="8811.3" y="2786.13" width="843.08" height="240.88"/>
  <rect class="fil0 str0" x="9820.73" y="2786.13" width="843.08" height="240.88"/>
  <rect class="fil0 str0" x="3824.41" y="3593.07" width="6299.05" height="240.88"/>
  <rect class="fil0 str0" x="12616.58" y="3454.56" width="1457.33" height="517.89"/>
  <rect class="fil0 str0" x="14394.22" y="3454.56" width="852.85" height="517.89"/>
  <rect class="fil0 str0" x="3667.81" y="4116.98" width="11779.1" height="5070.58"/>
  <rect class="fil0 str0" x="3812.39" y="4406.06" width="8491.07" height="4636.97"/>
  <rect class="fil0 str0" x="3812.39" y="6814.88" width="5299.39" height="2228.15"/>
  <rect class="fil0 str0" x="3896.7" y="7055.76" width="1409.16" height="192.7"/>
  <rect class="fil0 str0" x="3896.7" y="7447.19" width="4709.23" height="782.86"/>
  <rect class="fil0 str0" x="3896.7" y="8428.78" width="5010.33" height="541.98"/>
  <g id="_349957776">
   <rect class="fil0 str0" x="12546.92" y="4406.06" width="2700.15" height="1474.55"/>
   <rect class="fil0 str0" x="12573.73" y="5248.66" width="448.11" height="61.28"/>
   <rect class="fil0 str0" x="12573.73" y="5373.14" width="1497.53" height="248.95"/>
   <rect class="fil0 str0" x="12573.73" y="5685.28" width="1593.28" height="172.35"/>
  </g>
  <g id="_349958688">
   <rect class="fil0 str0" x="12546.92" y="5987.27" width="2700.15" height="1474.55"/>
   <rect class="fil0 str0" x="12573.73" y="6829.87" width="448.11" height="61.28"/>
   <rect class="fil0 str0" x="12573.73" y="6954.35" width="1497.53" height="248.95"/>
   <rect class="fil0 str0" x="12573.73" y="7266.49" width="1593.28" height="172.35"/>
  </g>
  <g id="_349960176">
   <rect class="fil0 str0" x="12546.92" y="7568.48" width="2700.15" height="1474.55"/>
   <rect class="fil0 str0" x="12573.73" y="8411.08" width="448.11" height="61.28"/>
   <rect class="fil0 str0" x="12573.73" y="8535.56" width="1497.53" height="248.95"/>
   <rect class="fil0 str0" x="12573.73" y="8847.7" width="1593.28" height="172.35"/>
  </g>
  <rect class="fil0 str0" x="3667.81" y="9187.56" width="11779.1" height="2526.24"/>
  <rect class="fil0 str0" x="9274.39" y="11376.56" width="282.97" height="337.23"/>
  <rect class="fil0 str0" x="9557.36" y="11376.56" width="282.97" height="337.23"/>
  <g id="_349962072">
   <rect class="fil0 str0" x="3812.39" y="9691.9" width="1360.98" height="1517.55"/>
   <rect class="fil0 str0" x="4113.5" y="9884.61" width="758.78" height="758.78"/>
   <rect class="fil0 str0" x="4023.17" y="10836.09" width="939.44" height="180.66"/>
  </g>
  <g id="_349962768">
   <rect class="fil0 str0" x="6330.81" y="9691.9" width="1360.98" height="1517.55"/>
   <rect class="fil0 str0" x="6631.92" y="9884.61" width="758.78" height="758.78"/>
   <rect class="fil0 str0" x="6541.59" y="10836.09" width="939.44" height="180.66"/>
  </g>
  <g id="_349963200">
   <rect class="fil0 str0" x="8849.24" y="9691.9" width="1360.98" height="1517.55"/>
   <rect class="fil0 str0" x="9150.34" y="9884.61" width="758.78" height="758.78"/>
   <rect class="fil0 str0" x="9060.01" y="10836.09" width="939.44" height="180.66"/>
  </g>
  <g id="_349964376">
   <rect class="fil0 str0" x="11367.66" y="9691.9" width="1360.98" height="1517.55"/>
   <rect class="fil0 str0" x="11668.76" y="9884.61" width="758.78" height="758.78"/>
   <rect class="fil0 str0" x="11578.43" y="10836.09" width="939.44" height="180.66"/>
  </g>
  <g id="_349965048">
   <rect class="fil0 str0" x="13886.09" y="9691.9" width="1360.98" height="1517.55"/>
   <rect class="fil0 str0" x="14187.19" y="9884.61" width="758.78" height="758.78"/>
   <rect class="fil0 str0" x="14096.86" y="10836.09" width="939.44" height="180.66"/>
  </g>
  <rect class="fil0 str0" x="3667.81" y="11713.8" width="11779.1" height="21787.74"/>
  <g id="_349965624">
   <rect class="fil0 str0" x="3812.39" y="11798.87" width="1662.08" height="1662.08"/>
   <rect class="fil0 str0" x="3974.31" y="12726.26" width="806.95" height="264.97"/>
   <rect class="fil0 str0" x="3974.31" y="12991.23" width="662.42" height="192.71"/>
  </g>
  <g id="_349966584">
   <rect class="fil0 str0" x="3812.39" y="13587.04" width="1662.08" height="1662.08"/>
   <rect class="fil0 str0" x="3974.31" y="14514.44" width="806.95" height="264.97"/>
   <rect class="fil0 str0" x="3974.31" y="14779.41" width="662.42" height="192.71"/>
  </g>
  <g id="_349966872">
   <rect class="fil0 str0" x="3812.39" y="15375.22" width="1662.08" height="1662.08"/>
   <rect class="fil0 str0" x="3974.31" y="16302.61" width="806.95" height="264.97"/>
   <rect class="fil0 str0" x="3974.31" y="16567.58" width="662.42" height="192.71"/>
  </g>
  <g id="_347539872">
   <rect class="fil0 str0" x="3812.39" y="17163.39" width="1662.08" height="1662.08"/>
   <rect class="fil0 str0" x="3974.31" y="18090.78" width="806.95" height="264.97"/>
   <rect class="fil0 str0" x="3974.31" y="18355.75" width="662.42" height="192.71"/>
  </g>
  <g id="_347540568">
   <rect class="fil0 str0" x="3812.39" y="18951.56" width="1662.08" height="1662.08"/>
   <rect class="fil0 str0" x="3974.31" y="19878.95" width="806.95" height="264.97"/>
   <rect class="fil0 str0" x="3974.31" y="20143.92" width="662.42" height="192.71"/>
  </g>
  <g id="_347551872">
   <rect class="fil0 str0" x="3812.39" y="20739.73" width="1662.08" height="1662.08"/>
   <rect class="fil0 str0" x="3974.31" y="21667.12" width="806.95" height="264.97"/>
   <rect class="fil0 str0" x="3974.31" y="21932.09" width="662.42" height="192.71"/>
  </g>
  <g id="_347552544">
   <rect class="fil0 str0" x="3812.39" y="22527.9" width="1662.08" height="1662.08"/>
   <rect class="fil0 str0" x="3974.31" y="23455.29" width="806.95" height="264.97"/>
   <rect class="fil0 str0" x="3974.31" y="23720.26" width="662.42" height="192.71"/>
  </g>
  <g id="_347553792">
   <rect class="fil0 str0" x="3812.39" y="24316.07" width="1662.08" height="1662.08"/>
   <rect class="fil0 str0" x="3974.31" y="25243.46" width="806.95" height="264.97"/>
   <rect class="fil0 str0" x="3974.31" y="25508.43" width="662.42" height="192.71"/>
  </g>
  <g id="_347554488">
   <rect class="fil0 str0" x="3812.39" y="26104.24" width="1662.08" height="1662.08"/>
   <rect class="fil0 str0" x="3974.31" y="27031.63" width="806.95" height="264.97"/>
   <rect class="fil0 str0" x="3974.31" y="27296.6" width="662.42" height="192.71"/>
  </g>
  <g id="_347555328">
   <rect class="fil0 str0" x="3812.39" y="27892.41" width="1662.08" height="1662.08"/>
   <rect class="fil0 str0" x="3974.31" y="28819.8" width="806.95" height="264.97"/>
   <rect class="fil0 str0" x="3974.31" y="29084.77" width="662.42" height="192.71"/>
  </g>
  <g id="_347555856">
   <rect class="fil0 str0" x="3812.39" y="29680.58" width="1662.08" height="1662.08"/>
   <rect class="fil0 str0" x="3974.31" y="30607.97" width="806.95" height="264.97"/>
   <rect class="fil0 str0" x="3974.31" y="30872.94" width="662.42" height="192.71"/>
  </g>
  <g id="_347556576">
   <rect class="fil0 str0" x="3812.39" y="31468.75" width="1662.08" height="1662.08"/>
   <rect class="fil0 str0" x="3974.31" y="32396.15" width="806.95" height="264.97"/>
   <rect class="fil0 str0" x="3974.31" y="32661.12" width="662.42" height="192.71"/>
  </g>
  <rect class="fil0 str0" x="5474.48" y="11798.87" width="9972.43" height="9228.57"/>
  <rect class="fil0 str0" x="5474.48" y="21027.43" width="9972.43" height="5921.68"/>
  <rect class="fil0 str0" x="5474.48" y="11798.87" width="9972.43" height="1108.85"/>
  <rect class="fil0 str0" x="5474.48" y="21027.43" width="9972.43" height="1108.85"/>
  <rect class="fil0 str0" x="5474.48" y="26949.11" width="9972.43" height="1108.85"/>
  <rect class="fil0 str0" x="3667.81" y="33501.53" width="11779.1" height="1108.85"/>
  <g id="_347532216">
   <rect class="fil0 str0" x="5642.48" y="12907.72" width="3251.9" height="3844.06"/>
   <rect class="fil0 str0" x="5783" y="12907.72" width="2970.87" height="1816.65"/>
   <rect class="fil0 str0" x="5783" y="14891.65" width="1144.19" height="130.48"/>
   <rect class="fil0 str0" x="5783" y="15189.4" width="2970.87" height="572.09"/>
   <rect class="fil0 str0" x="5783" y="15928.78" width="2970.87" height="823.01"/>
  </g>
  <g id="_347533248">
   <rect class="fil0 str0" x="5642.48" y="17183.37" width="3251.9" height="3844.06"/>
   <rect class="fil0 str0" x="5783" y="17183.37" width="2970.87" height="1816.65"/>
   <rect class="fil0 str0" x="5783" y="19167.29" width="1144.19" height="130.48"/>
   <rect class="fil0 str0" x="5783" y="19465.05" width="2970.87" height="572.09"/>
   <rect class="fil0 str0" x="5783" y="20204.42" width="2970.87" height="823.01"/>
  </g>
  <g id="_347534568">
   <rect class="fil0 str0" x="8918.74" y="12907.72" width="3251.9" height="3844.06"/>
   <rect class="fil0 str0" x="9059.26" y="12907.72" width="2970.87" height="1816.65"/>
   <rect class="fil0 str0" x="9059.26" y="14891.65" width="1144.19" height="130.48"/>
   <rect class="fil0 str0" x="9059.26" y="15189.4" width="2970.87" height="572.09"/>
   <rect class="fil0 str0" x="9059.26" y="15928.78" width="2970.87" height="823.01"/>
  </g>
  <g id="_347535600">
   <rect class="fil0 str0" x="8918.74" y="17183.37" width="3251.9" height="3844.06"/>
   <rect class="fil0 str0" x="9059.26" y="17183.37" width="2970.87" height="1816.65"/>
   <rect class="fil0 str0" x="9059.26" y="19167.29" width="1144.19" height="130.48"/>
   <rect class="fil0 str0" x="9059.26" y="19465.05" width="2970.87" height="572.09"/>
   <rect class="fil0 str0" x="9059.26" y="20204.42" width="2970.87" height="823.01"/>
  </g>
  <g id="_347537064">
   <rect class="fil0 str0" x="12195.01" y="12907.72" width="3251.9" height="3844.06"/>
   <rect class="fil0 str0" x="12335.52" y="12907.72" width="2970.87" height="1816.65"/>
   <rect class="fil0 str0" x="12335.52" y="14891.65" width="1144.19" height="130.48"/>
   <rect class="fil0 str0" x="12335.52" y="15189.4" width="2970.87" height="572.09"/>
   <rect class="fil0 str0" x="12335.52" y="15928.78" width="2970.87" height="823.01"/>
  </g>
  <g id="_347537976">
   <rect class="fil0 str0" x="12195.01" y="17183.37" width="3251.9" height="3844.06"/>
   <rect class="fil0 str0" x="12335.52" y="17183.37" width="2970.87" height="1816.65"/>
   <rect class="fil0 str0" x="12335.52" y="19167.29" width="1144.19" height="130.48"/>
   <rect class="fil0 str0" x="12335.52" y="19465.05" width="2970.87" height="572.09"/>
   <rect class="fil0 str0" x="12335.52" y="20204.42" width="2970.87" height="823.01"/>
  </g>
  <rect class="fil0 str0" x="13902.77" y="12497.4" width="1364.99" height="120.44"/>
  <rect class="fil0 str0" x="5813.17" y="12295.49" width="2308.45" height="351.29"/>
  <rect class="fil0 str0" x="5813.17" y="21524.06" width="2308.45" height="351.29"/>
  <rect class="fil0 str0" x="5813.17" y="27445.74" width="2308.45" height="351.29"/>
  <rect class="fil0 str0" x="4067.86" y="33998.16" width="2726.66" height="351.29"/>
  <rect class="fil0 str0" x="5682.69" y="11934.17" width="5058.51" height="883.23"/>
  <rect class="fil0 str0" x="5682.69" y="21162.74" width="5058.51" height="883.23"/>
  <rect class="fil0 str0" x="5682.69" y="27084.41" width="5058.51" height="883.23"/>
  <rect class="fil0 str0" x="3913.75" y="33636.83" width="5974.94" height="883.23"/>
  <g id="_349742184">
   <rect class="fil0 str0" x="5642.48" y="22392.44" width="2980.91" height="4486.41"/>
   <rect class="fil0 str0" x="6319.96" y="23195.38" width="1625.95" height="2930.72"/>
   <rect class="fil0 str0" x="6415.31" y="24068.57" width="1435.25" height="541.98"/>
   <rect class="fil0 str0" x="6535.75" y="24720.96" width="1194.37" height="582.13"/>
  </g>
  <g id="_349744080">
   <rect class="fil0 str0" x="9054.24" y="22392.44" width="2980.91" height="4486.41"/>
   <rect class="fil0 str0" x="9731.72" y="23195.38" width="1625.95" height="2930.72"/>
   <rect class="fil0 str0" x="9827.07" y="24068.57" width="1435.25" height="541.98"/>
   <rect class="fil0 str0" x="9947.51" y="24720.96" width="1194.37" height="582.13"/>
  </g>
  <g id="_349714776">
   <rect class="fil0 str0" x="12466" y="22392.44" width="2980.91" height="4486.41"/>
   <rect class="fil0 str0" x="13143.48" y="23195.38" width="1625.95" height="2930.72"/>
   <rect class="fil0 str0" x="13238.83" y="24068.57" width="1435.25" height="541.98"/>
   <rect class="fil0 str0" x="13359.27" y="24720.96" width="1194.37" height="582.13"/>
  </g>
  <g id="_349717848">
   <rect class="fil0 str0" x="5474.48" y="28284" width="3204.22" height="4699.52"/>
   <rect class="fil0 str0" x="5644.4" y="28284" width="2864.38" height="3815.94"/>
   <rect class="fil0 str0" x="5644.4" y="32342.67" width="2864.38" height="640.85"/>
  </g>
  <g id="_349719408">
   <rect class="fil0 str0" x="8858.58" y="28284" width="3204.22" height="4699.52"/>
   <rect class="fil0 str0" x="9028.5" y="28284" width="2864.38" height="3815.94"/>
   <rect class="fil0 str0" x="9028.5" y="32342.67" width="2864.38" height="640.85"/>
  </g>
  <g id="_349721016">
   <rect class="fil0 str0" x="12242.69" y="28284" width="3204.22" height="4699.52"/>
   <rect class="fil0 str0" x="12412.61" y="28284" width="2864.38" height="3815.94"/>
   <rect class="fil0 str0" x="12412.61" y="32342.67" width="2864.38" height="640.85"/>
  </g>
  <rect class="fil0 str0" x="13963.1" y="34125.35" width="1234.52" height="210.77"/>
  <g id="_349723776">
   <g>
    <rect class="fil0 str0" x="3667.81" y="34610.38" width="3926.36" height="1719.06"/>
    <rect class="fil0 str0" x="3864.13" y="34696.34" width="1254.2" height="210.56"/>
    <rect class="fil0 str0" x="3864.13" y="34906.9" width="3533.73" height="485.2"/>
    <rect class="fil0 str0" x="3864.13" y="35392.1" width="3533.73" height="851.39"/>
   </g>
   <g>
    <rect class="fil0 str0" x="7594.17" y="34610.38" width="3926.36" height="1719.06"/>
    <rect class="fil0 str0" x="7790.49" y="34696.34" width="1254.2" height="210.56"/>
    <rect class="fil0 str0" x="7790.49" y="34906.9" width="3533.73" height="485.2"/>
    <rect class="fil0 str0" x="7790.49" y="35392.1" width="3533.73" height="851.39"/>
   </g>
   <g>
    <rect class="fil0 str0" x="11520.54" y="34610.38" width="3926.36" height="1719.06"/>
    <rect class="fil0 str0" x="11716.86" y="34696.34" width="1254.2" height="210.56"/>
    <rect class="fil0 str0" x="11716.86" y="34906.9" width="3533.73" height="485.2"/>
    <rect class="fil0 str0" x="11716.86" y="35392.1" width="3533.73" height="851.39"/>
   </g>
   <g>
    <rect class="fil0 str0" x="3667.81" y="36329.44" width="3926.36" height="1719.06"/>
    <rect class="fil0 str0" x="3864.13" y="36415.39" width="1254.2" height="210.56"/>
    <rect class="fil0 str0" x="3864.13" y="36625.95" width="3533.73" height="485.2"/>
    <rect class="fil0 str0" x="3864.13" y="37111.16" width="3533.73" height="851.39"/>
   </g>
   <g>
    <rect class="fil0 str0" x="7594.17" y="36329.44" width="3926.36" height="1719.06"/>
    <rect class="fil0 str0" x="7790.49" y="36415.39" width="1254.2" height="210.56"/>
    <rect class="fil0 str0" x="7790.49" y="36625.95" width="3533.73" height="485.2"/>
    <rect class="fil0 str0" x="7790.49" y="37111.16" width="3533.73" height="851.39"/>
   </g>
   <g>
    <rect class="fil0 str0" x="11520.54" y="36329.44" width="3926.36" height="1719.06"/>
    <rect class="fil0 str0" x="11716.86" y="36415.39" width="1254.2" height="210.56"/>
    <rect class="fil0 str0" x="11716.86" y="36625.95" width="3533.73" height="485.2"/>
    <rect class="fil0 str0" x="11716.86" y="37111.16" width="3533.73" height="851.39"/>
   </g>
  </g>
  <rect class="fil0 str0" x="3667.81" y="38048.5" width="11779.09" height="1155.43"/>
  <g id="_349734864">
   <rect class="fil0 str0" x="9175.96" y="38475.66" width="371.36" height="301.1"/>
   <rect class="fil0 str0" x="9547.32" y="38475.66" width="391.43" height="301.1"/>
  </g>
  <rect class="fil0 str0" x="2.85" y="39625.48" width="19099.88" height="5121.07"/>
  <rect class="fil0 str0" x="12014.34" y="41080.79" width="3432.56" height="481.76"/>
  <rect class="fil0 str0" x="3667.81" y="41080.79" width="3432.56" height="481.76"/>
  <rect class="fil0 str0" x="8674.13" y="41080.79" width="1766.46" height="1545.66"/>
  <rect class="fil0 str0" x="3667.81" y="43489.61" width="5700.86" height="381.39"/>
  <rect class="fil0 str0" x="10629.28" y="43449.46" width="4817.63" height="401.47"/>
  <rect class="fil0 str0" x="14905.82" y="2735.94" width="341.25" height="341.25"/>
  <rect class="fil0 str0" x="14564.57" y="2735.94" width="341.25" height="341.25"/>
 </g>
</svg>
