<?xml version="1.0" encoding="UTF-8"?>
<!DOCTYPE svg PUBLIC "-//W3C//DTD SVG 1.1//EN" "http://www.w3.org/Graphics/SVG/1.1/DTD/svg11.dtd">
<!-- Creator: CorelDRAW 2019 -->
<svg xmlns="http://www.w3.org/2000/svg" xml:space="preserve" width="671.536mm" height="831.872mm" version="1.1" style="shape-rendering:geometricPrecision; text-rendering:geometricPrecision; image-rendering:optimizeQuality; fill-rule:evenodd; clip-rule:evenodd"
viewBox="0 0 2090.1 2589.14"
 xmlns:xlink="http://www.w3.org/1999/xlink">
 <defs>
  <style type="text/css">
   <![CDATA[
    .str0 {stroke:#2B2A29;stroke-width:0.62;stroke-miterlimit:22.9256}
    .fil0 {fill:none}
    .fil1 {fill:#EBECEC}
    .fil2 {fill:#D9DADA}
   ]]>
  </style>
 </defs>
 <g id="Layer_x0020_1">
  <metadata id="CorelCorpID_0Corel-Layer"/>
  <rect class="fil0 str0" x="519.13" y="129.32" width="1491.07" height="2426.54"/>
  <rect class="fil0 str0" x="0.31" y="0.31" width="2089.48" height="2588.51"/>
  <rect class="fil0 str0" x="0.31" y="0.31" width="2089.48" height="65.33"/>
  <rect class="fil1 str0" x="0.31" y="0.31" width="328.86" height="65.33"/>
  <rect class="fil0 str0" x="1622.6" y="22" width="133.96" height="21.96"/>
  <rect class="fil0 str0" x="1772.12" y="22" width="133.96" height="21.96"/>
  <rect class="fil0 str0" x="1921.64" y="22" width="133.96" height="21.96"/>
  <rect class="fil2 str0" x="71.14" y="129.32" width="399.67" height="527.04"/>
  <g id="_342086712">
   <rect class="fil0 str0" x="71.14" y="706.86" width="399.67" height="329.4"/>
   <rect class="fil0 str0" x="95.31" y="726.63" width="351.34" height="173.48"/>
   <g>
    <rect class="fil0 str0" x="95.31" y="936.9" width="232.77" height="38.43"/>
    <rect class="fil0 str0" x="95.31" y="975.33" width="164.7" height="17.57"/>
   </g>
   <rect class="fil0 str0" x="378.57" y="930.86" width="68.08" height="68.08"/>
  </g>
  <g id="_342094944">
   <rect class="fil0 str0" x="71.14" y="1066.82" width="399.67" height="329.4"/>
   <rect class="fil0 str0" x="95.31" y="1086.58" width="351.34" height="173.48"/>
   <g>
    <rect class="fil0 str0" x="95.31" y="1296.85" width="232.77" height="38.43"/>
    <rect class="fil0 str0" x="95.31" y="1335.28" width="164.7" height="17.57"/>
   </g>
   <rect class="fil0 str0" x="378.57" y="1290.81" width="68.08" height="68.08"/>
  </g>
  <g id="_342097632">
   <rect class="fil0 str0" x="565.24" y="225.4" width="810.32" height="46.12"/>
   <rect class="fil0 str0" x="565.24" y="271.51" width="740.63" height="20.86"/>
  </g>
  <rect class="fil1 str0" x="1876.24" y="219.36" width="79.06" height="79.06"/>
  <g id="_342100488">
   <rect class="fil0 str0" x="1447.5" y="238.03" width="415.56" height="21.96"/>
   <rect class="fil0 str0" x="1689.58" y="259.99" width="173.48" height="19.76"/>
  </g>
  <rect class="fil1 str0" x="565.24" y="344.53" width="1390.06" height="720.28"/>
  <rect class="fil0 str0" x="565.24" y="1099.95" width="1390.06" height="1182.51"/>
  <rect class="fil2 str0" x="565.24" y="2330.8" width="1390.06" height="158.11"/>
  <g id="_342101616">
   <rect class="fil0 str0" x="213.88" y="1469.97" width="30.74" height="30.74"/>
   <rect class="fil0 str0" x="255.6" y="1469.97" width="30.74" height="30.74"/>
   <rect class="fil0 str0" x="297.33" y="1469.97" width="30.74" height="30.74"/>
  </g>
  <rect class="fil0 str0" x="156.23" y="1529.26" width="229.48" height="10.43"/>
 </g>
</svg>
