<?xml version="1.0" encoding="UTF-8"?>
<!DOCTYPE svg PUBLIC "-//W3C//DTD SVG 1.1//EN" "http://www.w3.org/Graphics/SVG/1.1/DTD/svg11.dtd">
<!-- Creator: CorelDRAW 2019 -->
<svg xmlns="http://www.w3.org/2000/svg" xml:space="preserve" width="671.536mm" height="1663.54mm" version="1.1" style="shape-rendering:geometricPrecision; text-rendering:geometricPrecision; image-rendering:optimizeQuality; fill-rule:evenodd; clip-rule:evenodd"
viewBox="0 0 2337.99 5791.71"
 xmlns:xlink="http://www.w3.org/1999/xlink">
 <defs>
  <style type="text/css">
   <![CDATA[
    .str0 {stroke:#2B2A29;stroke-width:0.7;stroke-miterlimit:22.9256}
    .fil0 {fill:none}
    .fil1 {fill:#EBECEC}
    .fil2 {fill:#D9DADA}
   ]]>
  </style>
 </defs>
 <g id="Layer_x0020_1">
  <metadata id="CorelCorpID_0Corel-Layer"/>
  <rect class="fil0 str0" x="0.35" y="0.35" width="2337.29" height="5791.01"/>
  <rect class="fil0 str0" x="0.35" y="0.35" width="2337.29" height="73.08"/>
  <rect class="fil1 str0" x="0.35" y="0.35" width="367.86" height="73.08"/>
  <rect class="fil0 str0" x="1815.04" y="24.6" width="149.84" height="24.56"/>
  <rect class="fil0 str0" x="1982.29" y="24.6" width="149.84" height="24.56"/>
  <rect class="fil0 str0" x="2149.54" y="24.6" width="149.84" height="24.56"/>
  <rect class="fil2 str0" x="79.58" y="144.66" width="447.07" height="589.54"/>
  <rect class="fil0 str0" x="580.69" y="144.66" width="1667.91" height="589.54"/>
  <rect class="fil0 str0" x="2059.46" y="469.52" width="162.12" height="24.56"/>
  <rect class="fil0 str0" x="1661.52" y="494.09" width="560.07" height="46.06"/>
  <rect class="fil0 str0" x="1914.55" y="571.46" width="307.03" height="62.64"/>
  <g id="_803411960">
   <rect class="fil0 str0" x="79.58" y="790.7" width="447.07" height="368.46"/>
   <rect class="fil0 str0" x="106.61" y="812.81" width="393" height="194.06"/>
   <g>
    <rect class="fil0 str0" x="106.61" y="1048.01" width="260.38" height="42.99"/>
    <rect class="fil0 str0" x="106.61" y="1091" width="184.23" height="19.65"/>
   </g>
   <rect class="fil0 str0" x="423.46" y="1041.26" width="76.15" height="76.15"/>
  </g>
  <g id="_803415728">
   <rect class="fil0 str0" x="79.58" y="1193.34" width="447.07" height="368.46"/>
   <rect class="fil0 str0" x="106.61" y="1215.45" width="393" height="194.06"/>
   <g>
    <rect class="fil0 str0" x="106.61" y="1450.65" width="260.38" height="42.99"/>
    <rect class="fil0 str0" x="106.61" y="1493.64" width="184.23" height="19.65"/>
   </g>
   <rect class="fil0 str0" x="423.46" y="1443.9" width="76.15" height="76.15"/>
  </g>
  <g id="_803417840">
   <g>
    <rect class="fil0 str0" x="580.69" y="3753.27" width="555.97" height="854.59"/>
    <rect class="fil0 str0" x="641.39" y="3838.25" width="431.6" height="24.28"/>
    <rect class="fil0 str0" x="641.39" y="3918.36" width="26.71" height="26.71"/>
    <rect class="fil0 str0" x="641.39" y="3971.78" width="26.71" height="26.71"/>
    <rect class="fil0 str0" x="641.39" y="4025.19" width="26.71" height="26.71"/>
    <rect class="fil0 str0" x="641.39" y="4078.6" width="26.71" height="26.71"/>
    <rect class="fil0 str0" x="641.39" y="4132.01" width="26.71" height="26.71"/>
    <rect class="fil0 str0" x="641.39" y="4185.42" width="26.71" height="26.71"/>
    <rect class="fil0 str0" x="641.39" y="4238.84" width="26.71" height="26.71"/>
    <rect class="fil0 str0" x="641.39" y="4292.25" width="26.71" height="26.71"/>
    <rect class="fil0 str0" x="641.39" y="4345.66" width="26.71" height="26.71"/>
    <rect class="fil0 str0" x="641.39" y="4399.07" width="26.71" height="26.71"/>
    <rect class="fil0 str0" x="682.11" y="3918.36" width="157.81" height="26.71"/>
    <rect class="fil0 str0" x="682.11" y="3971.78" width="157.81" height="26.71"/>
    <rect class="fil0 str0" x="682.11" y="4025.19" width="157.81" height="26.71"/>
    <rect class="fil0 str0" x="682.11" y="4078.6" width="157.81" height="26.71"/>
    <rect class="fil0 str0" x="682.11" y="4132.01" width="157.81" height="26.71"/>
    <rect class="fil0 str0" x="682.11" y="4185.42" width="157.81" height="26.71"/>
    <rect class="fil0 str0" x="682.11" y="4238.84" width="157.81" height="26.71"/>
    <rect class="fil0 str0" x="682.11" y="4292.25" width="157.81" height="26.71"/>
    <rect class="fil0 str0" x="682.11" y="4345.66" width="157.81" height="26.71"/>
    <rect class="fil0 str0" x="682.11" y="4399.07" width="157.81" height="26.71"/>
    <rect class="fil0 str0" x="641.39" y="4481.62" width="431.6" height="75.26"/>
   </g>
   <g>
    <rect class="fil0 str0" x="1136.66" y="3753.27" width="555.97" height="854.59"/>
    <rect class="fil0 str0" x="1197.36" y="3838.25" width="431.6" height="24.28"/>
    <rect class="fil0 str0" x="1197.36" y="3918.36" width="26.71" height="26.71"/>
    <rect class="fil0 str0" x="1197.36" y="3971.78" width="26.71" height="26.71"/>
    <rect class="fil0 str0" x="1197.36" y="4025.19" width="26.71" height="26.71"/>
    <rect class="fil0 str0" x="1197.36" y="4078.6" width="26.71" height="26.71"/>
    <rect class="fil0 str0" x="1197.36" y="4132.01" width="26.71" height="26.71"/>
    <rect class="fil0 str0" x="1197.36" y="4185.42" width="26.71" height="26.71"/>
    <rect class="fil0 str0" x="1197.36" y="4238.84" width="26.71" height="26.71"/>
    <rect class="fil0 str0" x="1197.36" y="4292.25" width="26.71" height="26.71"/>
    <rect class="fil0 str0" x="1197.36" y="4345.66" width="26.71" height="26.71"/>
    <rect class="fil0 str0" x="1197.36" y="4399.07" width="26.71" height="26.71"/>
    <rect class="fil0 str0" x="1238.08" y="3918.36" width="157.81" height="26.71"/>
    <rect class="fil0 str0" x="1238.08" y="3971.78" width="157.81" height="26.71"/>
    <rect class="fil0 str0" x="1238.08" y="4025.19" width="157.81" height="26.71"/>
    <rect class="fil0 str0" x="1238.08" y="4078.6" width="157.81" height="26.71"/>
    <rect class="fil0 str0" x="1238.08" y="4132.01" width="157.81" height="26.71"/>
    <rect class="fil0 str0" x="1238.08" y="4185.42" width="157.81" height="26.71"/>
    <rect class="fil0 str0" x="1238.08" y="4238.84" width="157.81" height="26.71"/>
    <rect class="fil0 str0" x="1238.08" y="4292.25" width="157.81" height="26.71"/>
    <rect class="fil0 str0" x="1238.08" y="4345.66" width="157.81" height="26.71"/>
    <rect class="fil0 str0" x="1238.08" y="4399.07" width="157.81" height="26.71"/>
    <rect class="fil0 str0" x="1197.36" y="4481.62" width="431.6" height="75.26"/>
   </g>
   <g>
    <rect class="fil0 str0" x="1692.64" y="3753.27" width="555.97" height="854.59"/>
    <rect class="fil0 str0" x="1753.33" y="3838.25" width="431.6" height="24.28"/>
    <rect class="fil0 str0" x="1753.33" y="3918.36" width="26.71" height="26.71"/>
    <rect class="fil0 str0" x="1753.33" y="3971.78" width="26.71" height="26.71"/>
    <rect class="fil0 str0" x="1753.33" y="4025.19" width="26.71" height="26.71"/>
    <rect class="fil0 str0" x="1753.33" y="4078.6" width="26.71" height="26.71"/>
    <rect class="fil0 str0" x="1753.33" y="4132.01" width="26.71" height="26.71"/>
    <rect class="fil0 str0" x="1753.33" y="4185.42" width="26.71" height="26.71"/>
    <rect class="fil0 str0" x="1753.33" y="4238.84" width="26.71" height="26.71"/>
    <rect class="fil0 str0" x="1753.33" y="4292.25" width="26.71" height="26.71"/>
    <rect class="fil0 str0" x="1753.33" y="4345.66" width="26.71" height="26.71"/>
    <rect class="fil0 str0" x="1753.33" y="4399.07" width="26.71" height="26.71"/>
    <rect class="fil0 str0" x="1794.05" y="3918.36" width="157.81" height="26.71"/>
    <rect class="fil0 str0" x="1794.05" y="3971.78" width="157.81" height="26.71"/>
    <rect class="fil0 str0" x="1794.05" y="4025.19" width="157.81" height="26.71"/>
    <rect class="fil0 str0" x="1794.05" y="4078.6" width="157.81" height="26.71"/>
    <rect class="fil0 str0" x="1794.05" y="4132.01" width="157.81" height="26.71"/>
    <rect class="fil0 str0" x="1794.05" y="4185.42" width="157.81" height="26.71"/>
    <rect class="fil0 str0" x="1794.05" y="4238.84" width="157.81" height="26.71"/>
    <rect class="fil0 str0" x="1794.05" y="4292.25" width="157.81" height="26.71"/>
    <rect class="fil0 str0" x="1794.05" y="4345.66" width="157.81" height="26.71"/>
    <rect class="fil0 str0" x="1794.05" y="4399.07" width="157.81" height="26.71"/>
    <rect class="fil0 str0" x="1753.33" y="4481.62" width="431.6" height="75.26"/>
   </g>
  </g>
  <g id="_338258072">
   <rect class="fil0 str0" x="632.27" y="898.17" width="906.42" height="51.59"/>
   <rect class="fil0 str0" x="632.27" y="949.75" width="828.46" height="23.34"/>
  </g>
  <rect class="fil0 str0" x="2098.76" y="891.41" width="88.43" height="88.43"/>
  <g id="_338258672">
   <rect class="fil0 str0" x="1619.18" y="912.3" width="464.85" height="24.56"/>
   <rect class="fil0 str0" x="1889.96" y="936.86" width="194.06" height="22.1"/>
  </g>
  <rect class="fil0 str0" x="632.27" y="1031.43" width="1554.92" height="805.71"/>
  <rect class="fil0 str0" x="632.27" y="1876.44" width="1554.92" height="78.61"/>
  <rect class="fil2 str0" x="632.27" y="1989.44" width="1554.92" height="176.86"/>
  <rect class="fil0 str0" x="580.69" y="790.7" width="1667.91" height="1417.36"/>
  <g id="_338260472">
   <rect class="fil0 str0" x="632.27" y="2375.5" width="906.42" height="51.59"/>
   <rect class="fil0 str0" x="632.27" y="2427.08" width="828.46" height="23.34"/>
  </g>
  <rect class="fil0 str0" x="2098.76" y="2368.74" width="88.43" height="88.43"/>
  <g id="_338261576">
   <rect class="fil0 str0" x="1619.18" y="2389.62" width="464.85" height="24.56"/>
   <rect class="fil0 str0" x="1889.96" y="2414.19" width="194.06" height="22.1"/>
  </g>
  <rect class="fil0 str0" x="632.27" y="2508.76" width="1554.92" height="805.71"/>
  <rect class="fil0 str0" x="632.27" y="3353.77" width="1554.92" height="78.61"/>
  <rect class="fil2 str0" x="632.27" y="3466.76" width="1554.92" height="176.86"/>
  <rect class="fil0 str0" x="580.69" y="2268.03" width="1667.91" height="1417.36"/>
  <rect class="fil0 str0" x="578.24" y="4669.4" width="1672.83" height="1019.42"/>
  <g id="_345432792">
   <rect class="fil0 str0" x="624.91" y="4765.2" width="366.01" height="238.27"/>
   <g>
    <rect class="fil0 str0" x="733" y="4797.13" width="149.84" height="24.56"/>
    <rect class="fil0 str0" x="766.16" y="4842.57" width="83.52" height="83.52"/>
    <rect class="fil0 str0" x="741.59" y="4946.97" width="132.65" height="17.2"/>
   </g>
  </g>
  <g id="_345436584">
   <rect class="fil0 str0" x="1019.38" y="4765.2" width="366.01" height="238.27"/>
   <g>
    <rect class="fil0 str0" x="1127.47" y="4797.13" width="149.84" height="24.56"/>
    <rect class="fil0 str0" x="1160.63" y="4842.57" width="83.52" height="83.52"/>
    <rect class="fil0 str0" x="1136.06" y="4946.97" width="132.65" height="17.2"/>
   </g>
  </g>
  <g id="_345438336">
   <rect class="fil0 str0" x="1413.85" y="4765.2" width="366.01" height="238.27"/>
   <g>
    <rect class="fil0 str0" x="1521.94" y="4797.13" width="149.84" height="24.56"/>
    <rect class="fil0 str0" x="1555.1" y="4842.57" width="83.52" height="83.52"/>
    <rect class="fil0 str0" x="1530.53" y="4946.97" width="132.65" height="17.2"/>
   </g>
  </g>
  <g id="_345440088">
   <rect class="fil0 str0" x="1808.32" y="4765.2" width="366.01" height="238.27"/>
   <g>
    <rect class="fil0 str0" x="1916.4" y="4797.13" width="149.84" height="24.56"/>
    <rect class="fil0 str0" x="1949.57" y="4842.57" width="83.52" height="83.52"/>
    <rect class="fil0 str0" x="1925" y="4946.97" width="132.65" height="17.2"/>
   </g>
  </g>
  <rect class="fil0 str0" x="624.91" y="5111.55" width="1549.42" height="81.06"/>
  <rect class="fil0 str0" x="624.91" y="5239.29" width="760.48" height="54.04"/>
  <rect class="fil0 str0" x="1413.85" y="5239.29" width="760.48" height="54.04"/>
  <rect class="fil0 str0" x="624.91" y="5320.35" width="1549.42" height="176.86"/>
  <rect class="fil0 str0" x="1199.42" y="5524.23" width="400.4" height="49.13"/>
  <g id="_345444000">
   <rect class="fil0 str0" x="239.24" y="1644.31" width="34.39" height="34.39"/>
   <rect class="fil0 str0" x="285.92" y="1644.31" width="34.39" height="34.39"/>
   <rect class="fil0 str0" x="332.59" y="1644.31" width="34.39" height="34.39"/>
  </g>
  <rect class="fil0 str0" x="174.76" y="1710.63" width="256.7" height="11.67"/>
 </g>
</svg>
