<?xml version="1.0" encoding="UTF-8"?>
<!DOCTYPE svg PUBLIC "-//W3C//DTD SVG 1.1//EN" "http://www.w3.org/Graphics/SVG/1.1/DTD/svg11.dtd">
<!-- Creator: CorelDRAW 2019 -->
<svg xmlns="http://www.w3.org/2000/svg" xml:space="preserve" width="671.536mm" height="550.356mm" version="1.1" style="shape-rendering:geometricPrecision; text-rendering:geometricPrecision; image-rendering:optimizeQuality; fill-rule:evenodd; clip-rule:evenodd"
viewBox="0 0 1923.1 1576.07"
 xmlns:xlink="http://www.w3.org/1999/xlink">
 <defs>
  <style type="text/css">
   <![CDATA[
    .str0 {stroke:#2B2A29;stroke-width:0.57;stroke-miterlimit:22.9256}
    .fil0 {fill:none}
    .fil1 {fill:#EBECEC}
    .fil2 {fill:#D9DADA}
   ]]>
  </style>
 </defs>
 <g id="Layer_x0020_1">
  <metadata id="CorelCorpID_0Corel-Layer"/>
  <rect class="fil0 str0" x="0.29" y="0.29" width="1922.53" height="1575.5"/>
  <rect class="fil0 str0" x="0.29" y="0.29" width="1922.53" height="60.11"/>
  <rect class="fil1 str0" x="0.29" y="0.29" width="302.58" height="60.11"/>
  <rect class="fil0 str0" x="1492.95" y="20.24" width="123.25" height="20.21"/>
  <rect class="fil0 str0" x="1630.53" y="20.24" width="123.25" height="20.21"/>
  <rect class="fil0 str0" x="1768.1" y="20.24" width="123.25" height="20.21"/>
  <rect class="fil2 str0" x="65.46" y="118.99" width="367.74" height="484.93"/>
  <g id="_803576632">
   <rect class="fil0 str0" x="65.46" y="650.39" width="367.74" height="303.08"/>
   <rect class="fil0 str0" x="87.69" y="668.57" width="323.26" height="159.62"/>
   <g>
    <rect class="fil0 str0" x="87.69" y="862.04" width="214.18" height="35.36"/>
    <rect class="fil0 str0" x="87.69" y="897.4" width="151.54" height="16.16"/>
   </g>
   <rect class="fil0 str0" x="348.32" y="856.48" width="62.64" height="62.64"/>
  </g>
  <g id="_803585152">
   <rect class="fil0 str0" x="65.46" y="981.58" width="367.74" height="303.08"/>
   <rect class="fil0 str0" x="87.69" y="999.76" width="323.26" height="159.62"/>
   <g>
    <rect class="fil0 str0" x="87.69" y="1193.23" width="214.18" height="35.36"/>
    <rect class="fil0 str0" x="87.69" y="1228.59" width="151.54" height="16.16"/>
   </g>
   <rect class="fil0 str0" x="348.32" y="1187.67" width="62.64" height="62.64"/>
  </g>
  <g id="_803587792">
   <rect class="fil0 str0" x="196.79" y="1352.52" width="28.29" height="28.29"/>
   <rect class="fil0 str0" x="235.18" y="1352.52" width="28.29" height="28.29"/>
   <rect class="fil0 str0" x="273.57" y="1352.52" width="28.29" height="28.29"/>
  </g>
  <rect class="fil0 str0" x="143.75" y="1407.07" width="211.14" height="9.6"/>
  <g id="_803588584">
   <rect class="fil0 str0" x="476.32" y="118.99" width="1373.96" height="1410.33"/>
   <rect class="fil0 str0" x="521.78" y="209.91" width="177.81" height="20.21"/>
   <rect class="fil0 str0" x="521.78" y="258.41" width="1252.72" height="48.49"/>
   <g>
    <rect class="fil0 str0" x="521.78" y="363.47" width="92.94" height="11.11"/>
    <rect class="fil0 str0" x="521.78" y="374.59" width="1250.7" height="64.66"/>
   </g>
   <g>
    <rect class="fil0 str0" x="519.94" y="457.25" width="92.94" height="11.11"/>
    <rect class="fil0 str0" x="519.94" y="468.36" width="1250.7" height="64.66"/>
   </g>
   <g>
    <rect class="fil0 str0" x="518.09" y="551.03" width="92.94" height="11.11"/>
    <rect class="fil0 str0" x="518.09" y="562.14" width="1250.7" height="64.66"/>
   </g>
   <g>
    <rect class="fil0 str0" x="516.25" y="644.81" width="92.94" height="11.11"/>
    <rect class="fil0 str0" x="516.25" y="655.92" width="1250.7" height="64.66"/>
   </g>
   <g>
    <rect class="fil0 str0" x="514.4" y="738.59" width="92.94" height="11.11"/>
    <rect class="fil0 str0" x="514.4" y="749.7" width="1250.7" height="64.66"/>
   </g>
   <g>
    <rect class="fil0 str0" x="512.55" y="832.37" width="92.94" height="11.11"/>
    <rect class="fil0 str0" x="512.55" y="843.48" width="1250.7" height="64.66"/>
   </g>
   <g>
    <rect class="fil0 str0" x="510.71" y="926.15" width="92.94" height="11.11"/>
    <rect class="fil0 str0" x="510.71" y="937.26" width="1250.7" height="64.66"/>
   </g>
   <g>
    <rect class="fil0 str0" x="508.86" y="1019.93" width="92.94" height="11.11"/>
    <rect class="fil0 str0" x="508.86" y="1031.04" width="1250.7" height="64.66"/>
   </g>
   <g>
    <rect class="fil0 str0" x="507.02" y="1113.71" width="92.94" height="11.11"/>
    <rect class="fil0 str0" x="507.02" y="1124.82" width="1250.7" height="64.66"/>
   </g>
   <g>
    <rect class="fil0 str0" x="505.17" y="1207.49" width="92.94" height="11.11"/>
    <rect class="fil0 str0" x="505.17" y="1218.6" width="1250.7" height="64.66"/>
   </g>
   <g>
    <rect class="fil0 str0" x="503.33" y="1301.27" width="92.94" height="11.11"/>
    <rect class="fil0 str0" x="503.33" y="1312.38" width="1250.7" height="64.66"/>
   </g>
   <g>
    <rect class="fil0 str0" x="501.48" y="1395.04" width="92.94" height="11.11"/>
    <rect class="fil0 str0" x="501.48" y="1406.16" width="1250.7" height="64.66"/>
   </g>
  </g>
 </g>
</svg>
