<?xml version="1.0" encoding="UTF-8"?>
<!DOCTYPE svg PUBLIC "-//W3C//DTD SVG 1.1//EN" "http://www.w3.org/Graphics/SVG/1.1/DTD/svg11.dtd">
<!-- Creator: CorelDRAW 2019 -->
<svg xmlns="http://www.w3.org/2000/svg" xml:space="preserve" width="671.536mm" height="546.909mm" version="1.1" style="shape-rendering:geometricPrecision; text-rendering:geometricPrecision; image-rendering:optimizeQuality; fill-rule:evenodd; clip-rule:evenodd"
viewBox="0 0 2090.1 1702.21"
 xmlns:xlink="http://www.w3.org/1999/xlink">
 <defs>
  <style type="text/css">
   <![CDATA[
    .str0 {stroke:#2B2A29;stroke-width:0.62;stroke-miterlimit:22.9256}
    .fil0 {fill:none}
    .fil1 {fill:#EBECEC}
    .fil2 {fill:#D9DADA}
   ]]>
  </style>
 </defs>
 <g id="Layer_x0020_1">
  <metadata id="CorelCorpID_0Corel-Layer"/>
  <rect class="fil0 str0" x="0.31" y="0.31" width="2089.48" height="1701.59"/>
  <rect class="fil0 str0" x="0.31" y="0.31" width="2089.48" height="65.33"/>
  <rect class="fil1 str0" x="0.31" y="0.31" width="328.86" height="65.33"/>
  <rect class="fil0 str0" x="1622.6" y="22" width="133.96" height="21.96"/>
  <rect class="fil0 str0" x="1772.12" y="22" width="133.96" height="21.96"/>
  <rect class="fil0 str0" x="1921.64" y="22" width="133.96" height="21.96"/>
  <rect class="fil2 str0" x="71.14" y="129.32" width="399.67" height="527.04"/>
  <g id="_338596640">
   <rect class="fil0 str0" x="71.14" y="706.86" width="399.67" height="329.4"/>
   <rect class="fil0 str0" x="95.31" y="726.63" width="351.34" height="173.48"/>
   <g>
    <rect class="fil0 str0" x="95.31" y="936.9" width="232.77" height="38.43"/>
    <rect class="fil0 str0" x="95.31" y="975.33" width="164.7" height="17.57"/>
   </g>
   <rect class="fil0 str0" x="378.57" y="930.86" width="68.08" height="68.08"/>
  </g>
  <g id="_338615480">
   <rect class="fil0 str0" x="71.14" y="1066.82" width="399.67" height="329.4"/>
   <rect class="fil0 str0" x="95.31" y="1086.58" width="351.34" height="173.48"/>
   <g>
    <rect class="fil0 str0" x="95.31" y="1296.85" width="232.77" height="38.43"/>
    <rect class="fil0 str0" x="95.31" y="1335.28" width="164.7" height="17.57"/>
   </g>
   <rect class="fil0 str0" x="378.57" y="1290.81" width="68.08" height="68.08"/>
  </g>
  <g id="_336726656">
   <rect class="fil0 str0" x="213.88" y="1469.97" width="30.74" height="30.74"/>
   <rect class="fil0 str0" x="255.6" y="1469.97" width="30.74" height="30.74"/>
   <rect class="fil0 str0" x="297.33" y="1469.97" width="30.74" height="30.74"/>
  </g>
  <rect class="fil0 str0" x="156.23" y="1529.26" width="229.48" height="10.43"/>
  <g id="_336721976">
   <rect class="fil0 str0" x="532.41" y="129.32" width="1500.41" height="1510.29"/>
   <rect class="fil0 str0" x="586.76" y="223.2" width="143.29" height="24.7"/>
   <rect class="fil0 str0" x="586.76" y="270.96" width="1386.77" height="47.76"/>
   <rect class="fil0 str0" x="586.76" y="376.37" width="228.93" height="23.06"/>
   <g>
    <rect class="fil0 str0" x="586.76" y="462.01" width="456.22" height="551.74"/>
    <rect class="fil1 str0" x="611.46" y="480.13" width="406.81" height="248.7"/>
    <rect class="fil0 str0" x="611.46" y="746.94" width="317.87" height="23.06"/>
    <rect class="fil0 str0" x="611.46" y="770" width="406.81" height="41.17"/>
    <rect class="fil0 str0" x="611.46" y="829.29" width="406.81" height="18.12"/>
    <rect class="fil0 str0" x="611.46" y="870.47" width="406.81" height="123.52"/>
   </g>
   <g>
    <rect class="fil0 str0" x="586.76" y="1049.99" width="456.22" height="551.74"/>
    <rect class="fil1 str0" x="611.46" y="1068.11" width="406.81" height="248.7"/>
    <rect class="fil0 str0" x="611.46" y="1334.92" width="317.87" height="23.06"/>
    <rect class="fil0 str0" x="611.46" y="1357.98" width="406.81" height="41.17"/>
    <rect class="fil0 str0" x="611.46" y="1417.27" width="406.81" height="18.12"/>
    <rect class="fil0 str0" x="611.46" y="1458.44" width="406.81" height="123.52"/>
   </g>
   <g>
    <rect class="fil0 str0" x="1052.4" y="462.01" width="456.22" height="551.74"/>
    <rect class="fil1 str0" x="1077.11" y="480.13" width="406.81" height="248.7"/>
    <rect class="fil0 str0" x="1077.11" y="746.94" width="317.87" height="23.06"/>
    <rect class="fil0 str0" x="1077.11" y="770" width="406.81" height="41.17"/>
    <rect class="fil0 str0" x="1077.11" y="829.29" width="406.81" height="18.12"/>
    <rect class="fil0 str0" x="1077.11" y="870.47" width="406.81" height="123.52"/>
   </g>
   <g>
    <rect class="fil0 str0" x="1052.4" y="1049.99" width="456.22" height="551.74"/>
    <rect class="fil1 str0" x="1077.11" y="1068.11" width="406.81" height="248.7"/>
    <rect class="fil0 str0" x="1077.11" y="1334.92" width="317.87" height="23.06"/>
    <rect class="fil0 str0" x="1077.11" y="1357.98" width="406.81" height="41.17"/>
    <rect class="fil0 str0" x="1077.11" y="1417.27" width="406.81" height="18.12"/>
    <rect class="fil0 str0" x="1077.11" y="1458.44" width="406.81" height="123.52"/>
   </g>
   <g>
    <rect class="fil0 str0" x="1518.05" y="462.92" width="456.22" height="551.74"/>
    <rect class="fil1 str0" x="1542.75" y="481.04" width="406.81" height="248.7"/>
    <rect class="fil0 str0" x="1542.75" y="747.85" width="317.87" height="23.06"/>
    <rect class="fil0 str0" x="1542.75" y="770.91" width="406.81" height="41.17"/>
    <rect class="fil0 str0" x="1542.75" y="830.2" width="406.81" height="18.12"/>
    <rect class="fil0 str0" x="1542.75" y="871.38" width="406.81" height="123.52"/>
   </g>
   <g>
    <rect class="fil0 str0" x="1518.05" y="1050.9" width="456.22" height="551.74"/>
    <rect class="fil1 str0" x="1542.75" y="1069.01" width="406.81" height="248.7"/>
    <rect class="fil0 str0" x="1542.75" y="1335.83" width="317.87" height="23.06"/>
    <rect class="fil0 str0" x="1542.75" y="1358.88" width="406.81" height="41.17"/>
    <rect class="fil0 str0" x="1542.75" y="1418.18" width="406.81" height="18.12"/>
    <rect class="fil0 str0" x="1542.75" y="1459.35" width="406.81" height="123.52"/>
   </g>
  </g>
 </g>
</svg>
